<mxfile host="app.diagrams.net" modified="2021-10-27T15:53:57.059Z" agent="5.0 (Windows NT 10.0; Win64; x64) AppleWebKit/537.36 (KHTML, like Gecko) Chrome/95.0.4638.54 Safari/537.36" etag="EdCvtpNW3_Ch-4wAxFpi" version="15.6.0" type="github">
  <diagram id="C5RBs43oDa-KdzZeNtuy" name="Page-1">
    <mxGraphModel dx="782" dy="402" grid="1" gridSize="10" guides="1" tooltips="1" connect="1" arrows="1" fold="1" page="1" pageScale="1" pageWidth="827" pageHeight="1169" background="#F1FAEE" math="0" shadow="0">
      <root>
        <mxCell id="WIyWlLk6GJQsqaUBKTNV-0" />
        <mxCell id="WIyWlLk6GJQsqaUBKTNV-1" parent="WIyWlLk6GJQsqaUBKTNV-0" />
        <mxCell id="muakCHo6Xv4Z_iGSLYWo-16" value="" style="edgeStyle=orthogonalEdgeStyle;rounded=0;orthogonalLoop=1;jettySize=auto;html=1;startSize=0;sourcePerimeterSpacing=6;labelBackgroundColor=#F1FAEE;strokeColor=#457B9D;fontColor=#1D3557;" edge="1" parent="WIyWlLk6GJQsqaUBKTNV-1" source="muakCHo6Xv4Z_iGSLYWo-0" target="muakCHo6Xv4Z_iGSLYWo-1">
          <mxGeometry relative="1" as="geometry" />
        </mxCell>
        <mxCell id="muakCHo6Xv4Z_iGSLYWo-0" value="&lt;font style=&quot;vertical-align: inherit&quot;&gt;&lt;font style=&quot;vertical-align: inherit&quot;&gt;确定特征属性&lt;/font&gt;&lt;/font&gt;" style="rounded=0;whiteSpace=wrap;html=1;fillColor=#A8DADC;strokeColor=#457B9D;fontColor=#1D3557;" vertex="1" parent="WIyWlLk6GJQsqaUBKTNV-1">
          <mxGeometry x="120" y="80" width="120" height="60" as="geometry" />
        </mxCell>
        <mxCell id="muakCHo6Xv4Z_iGSLYWo-17" value="" style="edgeStyle=orthogonalEdgeStyle;rounded=0;orthogonalLoop=1;jettySize=auto;html=1;startSize=0;sourcePerimeterSpacing=6;labelBackgroundColor=#F1FAEE;strokeColor=#457B9D;fontColor=#1D3557;" edge="1" parent="WIyWlLk6GJQsqaUBKTNV-1" source="muakCHo6Xv4Z_iGSLYWo-1" target="muakCHo6Xv4Z_iGSLYWo-2">
          <mxGeometry relative="1" as="geometry" />
        </mxCell>
        <mxCell id="muakCHo6Xv4Z_iGSLYWo-1" value="&lt;font style=&quot;vertical-align: inherit&quot;&gt;&lt;font style=&quot;vertical-align: inherit&quot;&gt;按比例分离数据集&lt;/font&gt;&lt;/font&gt;" style="rounded=0;whiteSpace=wrap;html=1;fillColor=#A8DADC;strokeColor=#457B9D;fontColor=#1D3557;" vertex="1" parent="WIyWlLk6GJQsqaUBKTNV-1">
          <mxGeometry x="120" y="180" width="120" height="60" as="geometry" />
        </mxCell>
        <mxCell id="muakCHo6Xv4Z_iGSLYWo-18" value="" style="edgeStyle=orthogonalEdgeStyle;rounded=0;orthogonalLoop=1;jettySize=auto;html=1;startSize=0;sourcePerimeterSpacing=6;labelBackgroundColor=#F1FAEE;strokeColor=#457B9D;fontColor=#1D3557;" edge="1" parent="WIyWlLk6GJQsqaUBKTNV-1" source="muakCHo6Xv4Z_iGSLYWo-2" target="muakCHo6Xv4Z_iGSLYWo-3">
          <mxGeometry relative="1" as="geometry" />
        </mxCell>
        <mxCell id="muakCHo6Xv4Z_iGSLYWo-2" value="计算各个类别的P(yi)&lt;br&gt;类先验概率" style="rounded=0;whiteSpace=wrap;html=1;fillColor=#A8DADC;strokeColor=#457B9D;fontColor=#1D3557;" vertex="1" parent="WIyWlLk6GJQsqaUBKTNV-1">
          <mxGeometry x="120" y="280" width="120" height="60" as="geometry" />
        </mxCell>
        <mxCell id="muakCHo6Xv4Z_iGSLYWo-19" value="" style="edgeStyle=orthogonalEdgeStyle;rounded=0;orthogonalLoop=1;jettySize=auto;html=1;startSize=0;sourcePerimeterSpacing=6;labelBackgroundColor=#F1FAEE;strokeColor=#457B9D;fontColor=#1D3557;" edge="1" parent="WIyWlLk6GJQsqaUBKTNV-1" source="muakCHo6Xv4Z_iGSLYWo-3" target="muakCHo6Xv4Z_iGSLYWo-4">
          <mxGeometry relative="1" as="geometry" />
        </mxCell>
        <mxCell id="muakCHo6Xv4Z_iGSLYWo-3" value="计算各特征属性关于所有划分的条件概率&lt;br&gt;P(x|yi)" style="rounded=0;whiteSpace=wrap;html=1;fillColor=#A8DADC;strokeColor=#457B9D;fontColor=#1D3557;" vertex="1" parent="WIyWlLk6GJQsqaUBKTNV-1">
          <mxGeometry x="280" y="280" width="120" height="60" as="geometry" />
        </mxCell>
        <mxCell id="muakCHo6Xv4Z_iGSLYWo-20" value="" style="edgeStyle=orthogonalEdgeStyle;rounded=0;orthogonalLoop=1;jettySize=auto;html=1;startSize=0;sourcePerimeterSpacing=6;labelBackgroundColor=#F1FAEE;strokeColor=#457B9D;fontColor=#1D3557;" edge="1" parent="WIyWlLk6GJQsqaUBKTNV-1" source="muakCHo6Xv4Z_iGSLYWo-4" target="muakCHo6Xv4Z_iGSLYWo-6">
          <mxGeometry relative="1" as="geometry" />
        </mxCell>
        <mxCell id="muakCHo6Xv4Z_iGSLYWo-4" value="将P(x|yi)P(yi)的最大项作为x的类别" style="rounded=0;whiteSpace=wrap;html=1;fillColor=#A8DADC;strokeColor=#457B9D;fontColor=#1D3557;" vertex="1" parent="WIyWlLk6GJQsqaUBKTNV-1">
          <mxGeometry x="280" y="180" width="120" height="60" as="geometry" />
        </mxCell>
        <mxCell id="muakCHo6Xv4Z_iGSLYWo-6" value="与真实的x类别对比" style="rounded=0;whiteSpace=wrap;html=1;fillColor=#A8DADC;strokeColor=#457B9D;fontColor=#1D3557;" vertex="1" parent="WIyWlLk6GJQsqaUBKTNV-1">
          <mxGeometry x="280" y="80" width="120" height="60" as="geometry" />
        </mxCell>
      </root>
    </mxGraphModel>
  </diagram>
</mxfile>
